# Blender 3.3.1
# www.blender.org
mtllib try3.mtl
o Cube
v -185.619980 10.425627 -18.185001
v -185.619980 7.955507 -18.185001
v -185.619980 10.425621 18.869892
v -185.619980 7.955501 18.869892
v -258.644043 10.425627 -18.185001
v -258.644043 7.955507 -18.185001
v -258.644043 10.425621 18.869892
v -258.644043 7.955501 18.869892
v -197.444504 8.021496 14.328107
v -197.444504 -22.924633 14.328102
v -197.795975 8.021496 14.293489
v -197.795975 -22.924633 14.293485
v -198.133926 8.021496 14.190969
v -198.133926 -22.924633 14.190965
v -198.445404 8.021496 14.024488
v -198.445404 -22.924633 14.024484
v -198.718399 8.021496 13.800440
v -198.718399 -22.924633 13.800435
v -198.942444 8.021496 13.527437
v -198.942444 -22.924633 13.527432
v -199.108932 8.021496 13.215973
v -199.108932 -22.924633 13.215968
v -199.211441 8.021496 12.878012
v -199.211441 -22.924633 12.878007
v -199.246063 8.021496 12.526546
v -199.246063 -22.924633 12.526542
v -199.211441 8.021496 12.175077
v -199.211441 -22.924633 12.175073
v -199.108932 8.021496 11.837119
v -199.108932 -22.924629 11.837114
v -198.942444 8.021496 11.525651
v -198.942444 -22.924629 11.525646
v -198.718399 8.021496 11.252647
v -198.718399 -22.924629 11.252643
v -198.445404 8.021496 11.028605
v -198.445404 -22.924629 11.028600
v -198.133926 8.021496 10.862122
v -198.133926 -22.924629 10.862117
v -197.795975 8.021496 10.759604
v -197.795975 -22.924629 10.759599
v -197.444504 8.021496 10.724985
v -197.444504 -22.924629 10.724980
v -197.093033 8.021496 10.759604
v -197.093033 -22.924629 10.759599
v -196.755066 8.021496 10.862122
v -196.755066 -22.924629 10.862117
v -196.443604 8.021496 11.028605
v -196.443604 -22.924629 11.028600
v -196.170609 8.021496 11.252647
v -196.170609 -22.924629 11.252643
v -195.946564 8.021496 11.525651
v -195.946564 -22.924629 11.525646
v -195.780075 8.021496 11.837119
v -195.780075 -22.924629 11.837114
v -195.677551 8.021496 12.175077
v -195.677551 -22.924633 12.175073
v -195.642944 8.021496 12.526546
v -195.642944 -22.924633 12.526542
v -195.677551 8.021496 12.878012
v -195.677551 -22.924633 12.878007
v -195.780075 8.021496 13.215973
v -195.780075 -22.924633 13.215968
v -195.946564 8.021496 13.527437
v -195.946564 -22.924633 13.527432
v -196.170609 8.021496 13.800440
v -196.170609 -22.924633 13.800435
v -196.443604 8.021496 14.024488
v -196.443604 -22.924633 14.024484
v -196.755066 8.021496 14.190969
v -196.755066 -22.924633 14.190965
v -197.093033 8.021496 14.293489
v -197.093033 -22.924633 14.293485
v -246.807297 8.021496 14.328107
v -246.807297 -22.924633 14.328102
v -247.158768 8.021496 14.293489
v -247.158768 -22.924633 14.293485
v -247.496719 8.021496 14.190969
v -247.496719 -22.924633 14.190965
v -247.808197 8.021496 14.024488
v -247.808197 -22.924633 14.024484
v -248.081192 8.021496 13.800440
v -248.081192 -22.924633 13.800435
v -248.305252 8.021496 13.527437
v -248.305252 -22.924633 13.527432
v -248.471725 8.021496 13.215973
v -248.471725 -22.924633 13.215968
v -248.574249 8.021496 12.878012
v -248.574249 -22.924633 12.878007
v -248.608856 8.021496 12.526546
v -248.608856 -22.924633 12.526542
v -248.574249 8.021496 12.175077
v -248.574249 -22.924633 12.175073
v -248.471725 8.021496 11.837119
v -248.471725 -22.924629 11.837114
v -248.305252 8.021496 11.525651
v -248.305252 -22.924629 11.525646
v -248.081192 8.021496 11.252647
v -248.081192 -22.924629 11.252643
v -247.808197 8.021496 11.028605
v -247.808197 -22.924629 11.028600
v -247.496719 8.021496 10.862122
v -247.496719 -22.924629 10.862117
v -247.158768 8.021496 10.759604
v -247.158768 -22.924629 10.759599
v -246.807297 8.021496 10.724985
v -246.807297 -22.924629 10.724980
v -246.455826 8.021496 10.759604
v -246.455826 -22.924629 10.759599
v -246.117874 8.021496 10.862122
v -246.117874 -22.924629 10.862117
v -245.806396 8.021496 11.028605
v -245.806396 -22.924629 11.028600
v -245.533401 8.021496 11.252647
v -245.533401 -22.924629 11.252643
v -245.309357 8.021496 11.525651
v -245.309357 -22.924629 11.525646
v -245.142868 8.021496 11.837119
v -245.142868 -22.924629 11.837114
v -245.040359 8.021496 12.175077
v -245.040359 -22.924633 12.175073
v -245.005737 8.021496 12.526546
v -245.005737 -22.924633 12.526542
v -245.040359 8.021496 12.878012
v -245.040359 -22.924633 12.878007
v -245.142868 8.021496 13.215973
v -245.142868 -22.924633 13.215968
v -245.309357 8.021496 13.527437
v -245.309357 -22.924633 13.527432
v -245.533401 8.021496 13.800440
v -245.533401 -22.924633 13.800435
v -245.806396 8.021496 14.024488
v -245.806396 -22.924633 14.024484
v -246.117874 8.021496 14.190969
v -246.117874 -22.924633 14.190965
v -246.455826 8.021496 14.293489
v -246.455826 -22.924633 14.293485
v -197.444504 8.021500 -10.294731
v -197.444504 -22.924629 -10.294736
v -197.795975 8.021500 -10.329350
v -197.795975 -22.924629 -10.329354
v -198.133926 8.021500 -10.431868
v -198.133926 -22.924629 -10.431872
v -198.445404 8.021500 -10.598349
v -198.445404 -22.924629 -10.598353
v -198.718399 8.021500 -10.822397
v -198.718399 -22.924629 -10.822402
v -198.942444 8.021500 -11.095396
v -198.942444 -22.924629 -11.095401
v -199.108932 8.021500 -11.406864
v -199.108932 -22.924625 -11.406869
v -199.211441 8.021500 -11.744822
v -199.211441 -22.924625 -11.744826
v -199.246063 8.021500 -12.096291
v -199.246063 -22.924625 -12.096295
v -199.211441 8.021500 -12.447757
v -199.211441 -22.924625 -12.447762
v -199.108932 8.021500 -12.785718
v -199.108932 -22.924625 -12.785723
v -198.942444 8.021500 -13.097182
v -198.942444 -22.924625 -13.097187
v -198.718399 8.021500 -13.370186
v -198.718399 -22.924625 -13.370191
v -198.445404 8.021500 -13.594233
v -198.445404 -22.924625 -13.594237
v -198.133926 8.021500 -13.760715
v -198.133926 -22.924625 -13.760720
v -197.795975 8.021500 -13.863234
v -197.795975 -22.924625 -13.863238
v -197.444504 8.021500 -13.897852
v -197.444504 -22.924625 -13.897857
v -197.093033 8.021500 -13.863234
v -197.093033 -22.924625 -13.863238
v -196.755066 8.021500 -13.760715
v -196.755066 -22.924625 -13.760720
v -196.443604 8.021500 -13.594233
v -196.443604 -22.924625 -13.594237
v -196.170609 8.021500 -13.370186
v -196.170609 -22.924625 -13.370191
v -195.946564 8.021500 -13.097182
v -195.946564 -22.924625 -13.097187
v -195.780075 8.021500 -12.785718
v -195.780075 -22.924625 -12.785723
v -195.677551 8.021500 -12.447757
v -195.677551 -22.924625 -12.447762
v -195.642944 8.021500 -12.096291
v -195.642944 -22.924625 -12.096295
v -195.677551 8.021500 -11.744822
v -195.677551 -22.924625 -11.744826
v -195.780075 8.021500 -11.406864
v -195.780075 -22.924625 -11.406869
v -195.946564 8.021500 -11.095396
v -195.946564 -22.924629 -11.095401
v -196.170609 8.021500 -10.822397
v -196.170609 -22.924629 -10.822402
v -196.443604 8.021500 -10.598349
v -196.443604 -22.924629 -10.598353
v -196.755066 8.021500 -10.431868
v -196.755066 -22.924629 -10.431872
v -197.093033 8.021500 -10.329350
v -197.093033 -22.924629 -10.329354
v -246.807312 8.021500 -10.294731
v -246.807312 -22.924629 -10.294736
v -247.158783 8.021500 -10.329350
v -247.158783 -22.924629 -10.329354
v -247.496735 8.021500 -10.431868
v -247.496735 -22.924629 -10.431872
v -247.808197 8.021500 -10.598349
v -247.808197 -22.924629 -10.598353
v -248.081207 8.021500 -10.822397
v -248.081207 -22.924629 -10.822402
v -248.305252 8.021500 -11.095396
v -248.305252 -22.924629 -11.095401
v -248.471741 8.021500 -11.406864
v -248.471741 -22.924625 -11.406869
v -248.574249 8.021500 -11.744822
v -248.574249 -22.924625 -11.744826
v -248.608871 8.021500 -12.096291
v -248.608871 -22.924625 -12.096295
v -248.574249 8.021500 -12.447757
v -248.574249 -22.924625 -12.447762
v -248.471741 8.021500 -12.785718
v -248.471741 -22.924625 -12.785723
v -248.305252 8.021500 -13.097182
v -248.305252 -22.924625 -13.097187
v -248.081207 8.021500 -13.370186
v -248.081207 -22.924625 -13.370191
v -247.808197 8.021500 -13.594233
v -247.808197 -22.924625 -13.594237
v -247.496735 8.021500 -13.760715
v -247.496735 -22.924625 -13.760720
v -247.158783 8.021500 -13.863234
v -247.158783 -22.924625 -13.863238
v -246.807312 8.021500 -13.897852
v -246.807312 -22.924625 -13.897857
v -246.455841 8.021500 -13.863234
v -246.455841 -22.924625 -13.863238
v -246.117889 8.021500 -13.760715
v -246.117889 -22.924625 -13.760720
v -245.806412 8.021500 -13.594233
v -245.806412 -22.924625 -13.594237
v -245.533417 8.021500 -13.370186
v -245.533417 -22.924625 -13.370191
v -245.309357 8.021500 -13.097182
v -245.309357 -22.924625 -13.097187
v -245.142883 8.021500 -12.785718
v -245.142883 -22.924625 -12.785723
v -245.040359 8.021500 -12.447757
v -245.040359 -22.924625 -12.447762
v -245.005753 8.021500 -12.096291
v -245.005753 -22.924625 -12.096295
v -245.040359 8.021500 -11.744822
v -245.040359 -22.924625 -11.744826
v -245.142883 8.021500 -11.406864
v -245.142883 -22.924625 -11.406869
v -245.309357 8.021500 -11.095396
v -245.309357 -22.924629 -11.095401
v -245.533417 8.021500 -10.822397
v -245.533417 -22.924629 -10.822402
v -245.806412 8.021500 -10.598349
v -245.806412 -22.924629 -10.598353
v -246.117889 8.021500 -10.431868
v -246.117889 -22.924629 -10.431872
v -246.455841 8.021500 -10.329350
v -246.455841 -22.924629 -10.329354
vn -0.0000 1.0000 -0.0000
vn -0.0000 -0.0000 1.0000
vn -1.0000 -0.0000 -0.0000
vn -0.0000 -1.0000 -0.0000
vn 1.0000 -0.0000 -0.0000
vn -0.0000 -0.0000 -1.0000
vn 0.0980 -0.0000 -0.9952
vn 0.2903 -0.0000 -0.9569
vn 0.4714 -0.0000 -0.8819
vn 0.6344 -0.0000 -0.7730
vn 0.7730 -0.0000 -0.6344
vn 0.8819 -0.0000 -0.4714
vn 0.9569 -0.0000 -0.2903
vn 0.9952 -0.0000 -0.0980
vn 0.9952 -0.0000 0.0980
vn 0.9569 -0.0000 0.2903
vn 0.8819 -0.0000 0.4714
vn 0.7730 -0.0000 0.6344
vn 0.6344 -0.0000 0.7730
vn 0.4714 -0.0000 0.8819
vn 0.2903 -0.0000 0.9569
vn 0.0980 -0.0000 0.9952
vn -0.0980 -0.0000 0.9952
vn -0.2903 -0.0000 0.9569
vn -0.4714 -0.0000 0.8819
vn -0.6344 -0.0000 0.7730
vn -0.7730 -0.0000 0.6344
vn -0.8819 -0.0000 0.4714
vn -0.9569 -0.0000 0.2903
vn -0.9952 -0.0000 0.0980
vn -0.9952 -0.0000 -0.0980
vn -0.9569 -0.0000 -0.2903
vn -0.8819 -0.0000 -0.4714
vn -0.7730 -0.0000 -0.6344
vn -0.6344 -0.0000 -0.7730
vn -0.4714 -0.0000 -0.8819
vn -0.2903 -0.0000 -0.9569
vn -0.0980 -0.0000 -0.9952
vt 0.625000 0.500000
vt 0.375000 0.500000
vt 0.625000 0.750000
vt 0.375000 0.750000
vt 0.875000 0.500000
vt 0.625000 0.250000
vt 0.125000 0.500000
vt 0.375000 0.250000
vt 0.875000 0.750000
vt 0.625000 1.000000
vt 0.625000 0.000000
vt 0.375000 1.000000
vt 0.375000 0.000000
vt 0.125000 0.750000
vt 0.000000 0.000000
vt 0.000000 0.000000
vt 0.000000 0.000000
vt 0.000000 0.000000
vt 0.000000 0.000000
vt 0.000000 0.000000
vt 0.000000 0.000000
vt 0.000000 0.000000
vt 0.000000 0.000000
vt 0.000000 0.000000
vt 0.000000 0.000000
vt 0.000000 0.000000
vt 0.000000 0.000000
vt 0.000000 0.000000
vt 0.000000 0.000000
vt 0.000000 0.000000
vt 0.000000 0.000000
vt 0.000000 0.000000
vt 0.000000 0.000000
vt 0.000000 0.000000
vt 0.000000 0.000000
vt 0.000000 0.000000
vt 0.000000 0.000000
vt 0.000000 0.000000
vt 0.000000 0.000000
vt 0.000000 0.000000
vt 0.000000 0.000000
vt 0.000000 0.000000
vt 0.000000 0.000000
vt 0.000000 0.000000
vt 0.000000 0.000000
vt 0.000000 0.000000
vt 0.000000 0.000000
vt 0.000000 0.000000
vt 0.000000 0.000000
vt 0.000000 0.000000
vt 0.000000 0.000000
vt 0.000000 0.000000
vt 0.000000 0.000000
vt 0.000000 0.000000
vt 0.000000 0.000000
vt 0.000000 0.000000
vt 0.000000 0.000000
vt 0.000000 0.000000
vt 0.000000 0.000000
vt 0.000000 0.000000
vt 0.000000 0.000000
vt 0.000000 0.000000
vt 0.000000 0.000000
vt 0.000000 0.000000
vt 0.000000 0.000000
vt 0.000000 0.000000
vt 0.000000 0.000000
vt 0.000000 0.000000
vt 0.000000 0.000000
vt 0.000000 0.000000
vt 0.000000 0.000000
vt 0.000000 0.000000
vt 0.000000 0.000000
vt 0.000000 0.000000
vt 0.000000 0.000000
vt 0.000000 0.000000
vt 0.000000 0.000000
vt 0.000000 0.000000
vt 0.000000 0.000000
vt 0.000000 0.000000
vt 0.000000 0.000000
vt 0.000000 0.000000
vt 0.000000 0.000000
vt 0.000000 0.000000
vt 0.000000 0.000000
vt 0.000000 0.000000
vt 0.000000 0.000000
vt 0.000000 0.000000
vt 0.000000 0.000000
vt 0.000000 0.000000
vt 0.000000 0.000000
vt 0.000000 0.000000
vt 0.000000 0.000000
vt 0.000000 0.000000
vt 0.000000 0.000000
vt 0.000000 0.000000
vt 0.000000 0.000000
vt 0.000000 0.000000
vt 0.000000 0.000000
vt 0.000000 0.000000
vt 0.000000 0.000000
vt 0.000000 0.000000
vt 0.000000 0.000000
vt 0.000000 0.000000
vt 0.000000 0.000000
vt 0.000000 0.000000
vt 0.000000 0.000000
vt 0.000000 0.000000
vt 0.000000 0.000000
vt 0.000000 0.000000
vt 0.000000 0.000000
vt 0.000000 0.000000
vt 0.000000 0.000000
vt 0.000000 0.000000
vt 0.000000 0.000000
vt 0.000000 0.000000
vt 0.000000 0.000000
vt 0.000000 0.000000
vt 0.000000 0.000000
vt 0.000000 0.000000
vt 0.000000 0.000000
vt 0.000000 0.000000
vt 0.000000 0.000000
vt 0.000000 0.000000
vt 0.000000 0.000000
vt 0.000000 0.000000
vt 0.000000 0.000000
vt 0.000000 0.000000
vt 0.000000 0.000000
vt 0.000000 0.000000
vt 0.000000 0.000000
vt 0.000000 0.000000
vt 0.000000 0.000000
vt 0.000000 0.000000
vt 0.000000 0.000000
vt 0.000000 0.000000
vt 0.000000 0.000000
vt 0.000000 0.000000
vt 0.000000 0.000000
vt 0.000000 0.000000
vt 0.000000 0.000000
vt 0.000000 0.000000
vt 0.000000 0.000000
vt 0.000000 0.000000
vt 0.000000 0.000000
vt 0.000000 0.000000
vt 0.000000 0.000000
vt 0.000000 0.000000
vt 0.000000 0.000000
vt 0.000000 0.000000
vt 0.000000 0.000000
vt 0.000000 0.000000
vt 0.000000 0.000000
vt 0.000000 0.000000
vt 0.000000 0.000000
vt 0.000000 0.000000
vt 0.000000 0.000000
vt 0.000000 0.000000
vt 0.000000 0.000000
vt 0.000000 0.000000
vt 0.000000 0.000000
vt 0.000000 0.000000
vt 0.000000 0.000000
vt 0.000000 0.000000
vt 0.000000 0.000000
vt 0.000000 0.000000
vt 0.000000 0.000000
vt 0.000000 0.000000
vt 0.000000 0.000000
vt 0.000000 0.000000
vt 0.000000 0.000000
vt 0.000000 0.000000
vt 0.000000 0.000000
vt 0.000000 0.000000
vt 0.000000 0.000000
vt 0.000000 0.000000
vt 0.000000 0.000000
vt 0.000000 0.000000
vt 0.000000 0.000000
vt 0.000000 0.000000
vt 0.000000 0.000000
vt 0.000000 0.000000
vt 0.000000 0.000000
vt 0.000000 0.000000
vt 0.000000 0.000000
vt 0.000000 0.000000
vt 0.000000 0.000000
vt 0.000000 0.000000
vt 0.000000 0.000000
vt 0.000000 0.000000
vt 0.000000 0.000000
vt 0.000000 0.000000
vt 0.000000 0.000000
vt 0.000000 0.000000
vt 0.000000 0.000000
vt 0.000000 0.000000
vt 0.000000 0.000000
vt 0.000000 0.000000
vt 0.000000 0.000000
vt 0.000000 0.000000
vt 0.000000 0.000000
vt 0.000000 0.000000
vt 0.000000 0.000000
vt 0.000000 0.000000
vt 0.000000 0.000000
vt 0.000000 0.000000
vt 0.000000 0.000000
vt 0.000000 0.000000
vt 0.000000 0.000000
vt 0.000000 0.000000
vt 0.000000 0.000000
vt 0.000000 0.000000
vt 0.000000 0.000000
vt 0.000000 0.000000
vt 0.000000 0.000000
vt 0.000000 0.000000
vt 0.000000 0.000000
vt 0.000000 0.000000
vt 0.000000 0.000000
vt 0.000000 0.000000
vt 0.000000 0.000000
vt 0.000000 0.000000
vt 0.000000 0.000000
vt 0.000000 0.000000
vt 0.000000 0.000000
vt 0.000000 0.000000
vt 0.000000 0.000000
vt 0.000000 0.000000
vt 0.000000 0.000000
vt 0.000000 0.000000
vt 0.000000 0.000000
vt 0.000000 0.000000
vt 0.000000 0.000000
vt 0.000000 0.000000
vt 0.000000 0.000000
vt 0.000000 0.000000
vt 0.000000 0.000000
vt 0.000000 0.000000
vt 0.000000 0.000000
vt 0.000000 0.000000
vt 0.000000 0.000000
vt 0.000000 0.000000
vt 0.000000 0.000000
vt 0.000000 0.000000
vt 0.000000 0.000000
vt 0.000000 0.000000
vt 0.000000 0.000000
vt 0.000000 0.000000
vt 0.000000 0.000000
vt 0.000000 0.000000
vt 0.000000 0.000000
vt 0.000000 0.000000
vt 0.000000 0.000000
vt 0.000000 0.000000
vt 0.000000 0.000000
vt 0.000000 0.000000
vt 0.000000 0.000000
vt 0.000000 0.000000
vt 0.000000 0.000000
vt 0.000000 0.000000
vt 0.000000 0.000000
vt 0.000000 0.000000
vt 0.000000 0.000000
vt 0.000000 0.000000
vt 0.000000 0.000000
vt 0.000000 0.000000
vt 0.000000 0.000000
vt 0.000000 0.000000
vt 0.000000 0.000000
vt 0.000000 0.000000
s 0
usemtl Material.001
f 1/1/1 5/5/1 7/9/1 3/3/1
f 4/4/2 3/3/2 7/10/2 8/12/2
f 8/13/3 7/11/3 5/6/3 6/8/3
f 6/7/4 2/2/4 4/4/4 8/14/4
f 2/2/5 1/1/5 3/3/5 4/4/5
f 6/8/6 5/6/6 1/1/6 2/2/6
f 9/15/7 10/16/7 12/18/7 11/17/7
f 11/17/8 12/18/8 14/20/8 13/19/8
f 13/19/9 14/20/9 16/22/9 15/21/9
f 15/21/10 16/22/10 18/24/10 17/23/10
f 17/23/11 18/24/11 20/26/11 19/25/11
f 19/25/12 20/26/12 22/28/12 21/27/12
f 21/27/13 22/28/13 24/30/13 23/29/13
f 23/29/14 24/30/14 26/32/14 25/31/14
f 25/31/15 26/32/15 28/34/15 27/33/15
f 27/33/16 28/34/16 30/36/16 29/35/16
f 29/35/17 30/36/17 32/38/17 31/37/17
f 31/37/18 32/38/18 34/40/18 33/39/18
f 33/39/19 34/40/19 36/42/19 35/41/19
f 35/41/20 36/42/20 38/44/20 37/43/20
f 37/43/21 38/44/21 40/46/21 39/45/21
f 39/45/22 40/46/22 42/48/22 41/47/22
f 41/47/23 42/48/23 44/50/23 43/49/23
f 43/49/24 44/50/24 46/52/24 45/51/24
f 45/51/25 46/52/25 48/54/25 47/53/25
f 47/53/26 48/54/26 50/56/26 49/55/26
f 49/55/27 50/56/27 52/58/27 51/57/27
f 51/57/28 52/58/28 54/60/28 53/59/28
f 53/59/29 54/60/29 56/62/29 55/61/29
f 55/61/30 56/62/30 58/64/30 57/63/30
f 57/63/31 58/64/31 60/66/31 59/65/31
f 59/65/32 60/66/32 62/68/32 61/67/32
f 61/67/33 62/68/33 64/70/33 63/69/33
f 63/69/34 64/70/34 66/72/34 65/71/34
f 65/71/35 66/72/35 68/74/35 67/73/35
f 67/73/36 68/74/36 70/76/36 69/75/36
f 12/18/1 10/16/1 72/78/1 70/76/1 68/74/1 66/72/1 64/70/1 62/68/1 60/66/1 58/64/1 56/62/1 54/60/1 52/58/1 50/56/1 48/54/1 46/52/1 44/50/1 42/48/1 40/46/1 38/44/1 36/42/1 34/40/1 32/38/1 30/36/1 28/34/1 26/32/1 24/30/1 22/28/1 20/26/1 18/24/1 16/22/1 14/20/1
f 69/75/37 70/76/37 72/78/37 71/77/37
f 71/77/38 72/78/38 10/16/38 9/15/38
f 9/15/4 11/17/4 13/19/4 15/21/4 17/23/4 19/25/4 21/27/4 23/29/4 25/31/4 27/33/4 29/35/4 31/37/4 33/39/4 35/41/4 37/43/4 39/45/4 41/47/4 43/49/4 45/51/4 47/53/4 49/55/4 51/57/4 53/59/4 55/61/4 57/63/4 59/65/4 61/67/4 63/69/4 65/71/4 67/73/4 69/75/4 71/77/4
f 73/79/7 74/80/7 76/82/7 75/81/7
f 75/81/8 76/82/8 78/84/8 77/83/8
f 77/83/9 78/84/9 80/86/9 79/85/9
f 79/85/10 80/86/10 82/88/10 81/87/10
f 81/87/11 82/88/11 84/90/11 83/89/11
f 83/89/12 84/90/12 86/92/12 85/91/12
f 85/91/13 86/92/13 88/94/13 87/93/13
f 87/93/14 88/94/14 90/96/14 89/95/14
f 89/95/15 90/96/15 92/98/15 91/97/15
f 91/97/16 92/98/16 94/100/16 93/99/16
f 93/99/17 94/100/17 96/102/17 95/101/17
f 95/101/18 96/102/18 98/104/18 97/103/18
f 97/103/19 98/104/19 100/106/19 99/105/19
f 99/105/20 100/106/20 102/108/20 101/107/20
f 101/107/21 102/108/21 104/110/21 103/109/21
f 103/109/22 104/110/22 106/112/22 105/111/22
f 105/111/23 106/112/23 108/114/23 107/113/23
f 107/113/24 108/114/24 110/116/24 109/115/24
f 109/115/25 110/116/25 112/118/25 111/117/25
f 111/117/26 112/118/26 114/120/26 113/119/26
f 113/119/27 114/120/27 116/122/27 115/121/27
f 115/121/28 116/122/28 118/124/28 117/123/28
f 117/123/29 118/124/29 120/126/29 119/125/29
f 119/125/30 120/126/30 122/128/30 121/127/30
f 121/127/31 122/128/31 124/130/31 123/129/31
f 123/129/32 124/130/32 126/132/32 125/131/32
f 125/131/33 126/132/33 128/134/33 127/133/33
f 127/133/34 128/134/34 130/136/34 129/135/34
f 129/135/35 130/136/35 132/138/35 131/137/35
f 131/137/36 132/138/36 134/140/36 133/139/36
f 76/82/1 74/80/1 136/142/1 134/140/1 132/138/1 130/136/1 128/134/1 126/132/1 124/130/1 122/128/1 120/126/1 118/124/1 116/122/1 114/120/1 112/118/1 110/116/1 108/114/1 106/112/1 104/110/1 102/108/1 100/106/1 98/104/1 96/102/1 94/100/1 92/98/1 90/96/1 88/94/1 86/92/1 84/90/1 82/88/1 80/86/1 78/84/1
f 133/139/37 134/140/37 136/142/37 135/141/37
f 135/141/38 136/142/38 74/80/38 73/79/38
f 73/79/4 75/81/4 77/83/4 79/85/4 81/87/4 83/89/4 85/91/4 87/93/4 89/95/4 91/97/4 93/99/4 95/101/4 97/103/4 99/105/4 101/107/4 103/109/4 105/111/4 107/113/4 109/115/4 111/117/4 113/119/4 115/121/4 117/123/4 119/125/4 121/127/4 123/129/4 125/131/4 127/133/4 129/135/4 131/137/4 133/139/4 135/141/4
f 137/143/7 138/144/7 140/146/7 139/145/7
f 139/145/8 140/146/8 142/148/8 141/147/8
f 141/147/9 142/148/9 144/150/9 143/149/9
f 143/149/10 144/150/10 146/152/10 145/151/10
f 145/151/11 146/152/11 148/154/11 147/153/11
f 147/153/12 148/154/12 150/156/12 149/155/12
f 149/155/13 150/156/13 152/158/13 151/157/13
f 151/157/14 152/158/14 154/160/14 153/159/14
f 153/159/15 154/160/15 156/162/15 155/161/15
f 155/161/16 156/162/16 158/164/16 157/163/16
f 157/163/17 158/164/17 160/166/17 159/165/17
f 159/165/18 160/166/18 162/168/18 161/167/18
f 161/167/19 162/168/19 164/170/19 163/169/19
f 163/169/20 164/170/20 166/172/20 165/171/20
f 165/171/21 166/172/21 168/174/21 167/173/21
f 167/173/22 168/174/22 170/176/22 169/175/22
f 169/175/23 170/176/23 172/178/23 171/177/23
f 171/177/24 172/178/24 174/180/24 173/179/24
f 173/179/25 174/180/25 176/182/25 175/181/25
f 175/181/26 176/182/26 178/184/26 177/183/26
f 177/183/27 178/184/27 180/186/27 179/185/27
f 179/185/28 180/186/28 182/188/28 181/187/28
f 181/187/29 182/188/29 184/190/29 183/189/29
f 183/189/30 184/190/30 186/192/30 185/191/30
f 185/191/31 186/192/31 188/194/31 187/193/31
f 187/193/32 188/194/32 190/196/32 189/195/32
f 189/195/33 190/196/33 192/198/33 191/197/33
f 191/197/34 192/198/34 194/200/34 193/199/34
f 193/199/35 194/200/35 196/202/35 195/201/35
f 195/201/36 196/202/36 198/204/36 197/203/36
f 140/146/1 138/144/1 200/206/1 198/204/1 196/202/1 194/200/1 192/198/1 190/196/1 188/194/1 186/192/1 184/190/1 182/188/1 180/186/1 178/184/1 176/182/1 174/180/1 172/178/1 170/176/1 168/174/1 166/172/1 164/170/1 162/168/1 160/166/1 158/164/1 156/162/1 154/160/1 152/158/1 150/156/1 148/154/1 146/152/1 144/150/1 142/148/1
f 197/203/37 198/204/37 200/206/37 199/205/37
f 199/205/38 200/206/38 138/144/38 137/143/38
f 137/143/4 139/145/4 141/147/4 143/149/4 145/151/4 147/153/4 149/155/4 151/157/4 153/159/4 155/161/4 157/163/4 159/165/4 161/167/4 163/169/4 165/171/4 167/173/4 169/175/4 171/177/4 173/179/4 175/181/4 177/183/4 179/185/4 181/187/4 183/189/4 185/191/4 187/193/4 189/195/4 191/197/4 193/199/4 195/201/4 197/203/4 199/205/4
f 201/207/7 202/208/7 204/210/7 203/209/7
f 203/209/8 204/210/8 206/212/8 205/211/8
f 205/211/9 206/212/9 208/214/9 207/213/9
f 207/213/10 208/214/10 210/216/10 209/215/10
f 209/215/11 210/216/11 212/218/11 211/217/11
f 211/217/12 212/218/12 214/220/12 213/219/12
f 213/219/13 214/220/13 216/222/13 215/221/13
f 215/221/14 216/222/14 218/224/14 217/223/14
f 217/223/15 218/224/15 220/226/15 219/225/15
f 219/225/16 220/226/16 222/228/16 221/227/16
f 221/227/17 222/228/17 224/230/17 223/229/17
f 223/229/18 224/230/18 226/232/18 225/231/18
f 225/231/19 226/232/19 228/234/19 227/233/19
f 227/233/20 228/234/20 230/236/20 229/235/20
f 229/235/21 230/236/21 232/238/21 231/237/21
f 231/237/22 232/238/22 234/240/22 233/239/22
f 233/239/23 234/240/23 236/242/23 235/241/23
f 235/241/24 236/242/24 238/244/24 237/243/24
f 237/243/25 238/244/25 240/246/25 239/245/25
f 239/245/26 240/246/26 242/248/26 241/247/26
f 241/247/27 242/248/27 244/250/27 243/249/27
f 243/249/28 244/250/28 246/252/28 245/251/28
f 245/251/29 246/252/29 248/254/29 247/253/29
f 247/253/30 248/254/30 250/256/30 249/255/30
f 249/255/31 250/256/31 252/258/31 251/257/31
f 251/257/32 252/258/32 254/260/32 253/259/32
f 253/259/33 254/260/33 256/262/33 255/261/33
f 255/261/34 256/262/34 258/264/34 257/263/34
f 257/263/35 258/264/35 260/266/35 259/265/35
f 259/265/36 260/266/36 262/268/36 261/267/36
f 204/210/1 202/208/1 264/270/1 262/268/1 260/266/1 258/264/1 256/262/1 254/260/1 252/258/1 250/256/1 248/254/1 246/252/1 244/250/1 242/248/1 240/246/1 238/244/1 236/242/1 234/240/1 232/238/1 230/236/1 228/234/1 226/232/1 224/230/1 222/228/1 220/226/1 218/224/1 216/222/1 214/220/1 212/218/1 210/216/1 208/214/1 206/212/1
f 261/267/37 262/268/37 264/270/37 263/269/37
f 263/269/38 264/270/38 202/208/38 201/207/38
f 201/207/4 203/209/4 205/211/4 207/213/4 209/215/4 211/217/4 213/219/4 215/221/4 217/223/4 219/225/4 221/227/4 223/229/4 225/231/4 227/233/4 229/235/4 231/237/4 233/239/4 235/241/4 237/243/4 239/245/4 241/247/4 243/249/4 245/251/4 247/253/4 249/255/4 251/257/4 253/259/4 255/261/4 257/263/4 259/265/4 261/267/4 263/269/4
