# Blender 3.3.1
# www.blender.org
mtllib Block4.mtl
o Block4
v 2.402830 6.223568 3.299373
v 0.813706 6.223568 3.999667
v -1.563942 6.223568 -1.395747
v 0.025181 6.223568 -2.096041
v 2.402831 -4.776248 3.299372
v 0.813707 -4.776248 3.999667
v -1.652595 -7.670889 -5.903295
v -3.241719 -7.670889 -5.203001
vn -0.4033 -0.0000 -0.9151
vn -0.0000 -1.0000 -0.0000
vn 0.3863 -0.2869 0.8766
vn 0.9151 -0.0000 -0.4033
vn -0.9151 -0.0000 0.4033
vn -0.1115 0.9610 -0.2531
vt 0.000000 0.000000
vt 0.386239 0.720575
vt 0.000000 0.000000
vt 0.386239 0.720575
vt 0.000000 0.000000
vt 0.257493 0.720575
vt 0.000000 0.000000
vt 0.514986 0.720575
vt 0.000000 0.000000
vt 0.386239 0.480383
vt 1.000000 0.000000
vt 0.000000 0.000000
vt 0.386239 0.480383
vt 0.962080 0.000000
vt 0.000000 0.000000
vt 0.605835 0.417176
vt 1.000000 0.218561
vt 0.000000 0.000000
vt 0.166643 0.417176
vt 0.962080 0.218561
s 0
usemtl Material.006
f 2/3/1 1/1/1 5/9/1 6/12/1
f 3/5/2 4/7/2 1/1/2 2/3/2
f 7/15/3 4/7/3 3/5/3 8/18/3
usemtl Wall.003
f 7/16/4 4/8/4 1/2/4 5/10/4
f 6/13/5 2/4/5 3/6/5 8/19/5
f 6/14/6 5/11/6 7/17/6 8/20/6
