# Blender 3.3.1
# www.blender.org
mtllib Block7.mtl
o Block7.001
v -0.869384 -6.376335 -3.356413
v -0.869384 -6.376335 2.547058
v 0.869382 -6.376335 2.547058
v 0.869382 -6.376335 -3.356413
v -0.869381 12.752670 0.809355
v 0.869385 12.752670 0.809355
vn -0.0000 0.0905 0.9959
vn 1.0000 -0.0000 -0.0000
vn -1.0000 -0.0000 -0.0000
vn -0.0000 0.2128 -0.9771
vn -0.0000 -1.0000 -0.0000
vt 0.514986 0.000000
vt 0.643732 0.000000
vt 0.000000 0.000000
vt 0.000000 0.000000
vt 0.128746 0.000000
vt 0.257493 0.000000
vt 0.605835 0.417176
vt 0.000000 0.000000
vt 0.000000 0.000000
vt 0.166643 0.417176
s 0
usemtl Material.009
f 5/8/1 2/3/1 3/4/1 6/9/1
usemtl Wall.006
f 4/6/2 6/10/2 3/5/2
f 2/2/3 5/7/3 1/1/3
f 1/1/4 5/8/4 6/10/4 4/6/4
f 1/1/5 4/6/5 3/5/5 2/3/5
