# Blender 3.3.1
# www.blender.org
mtllib block1.mtl
o block1
v 1.000000 -6.737500 -5.000000
v -1.000000 -6.737500 -5.000000
v 1.000000 6.737500 -5.000000
v -1.000000 6.737500 -5.000000
v 1.000000 -6.737500 5.000000
v 1.000000 6.737500 5.000000
v -1.000000 -6.737500 5.000000
v -1.000000 6.737500 5.000000
v 1.000000 -6.737500 -5.000000
v -1.000000 -6.737500 -5.000000
v 1.000000 6.737500 -5.000000
v -1.000000 6.737500 -5.000000
v 1.000000 -6.737500 5.000000
v 1.000000 6.737500 5.000000
v -1.000000 -6.737500 5.000000
v -1.000000 6.737500 5.000000
vn -0.0000 -0.0000 1.0000
vn -0.0000 -1.0000 -0.0000
vn -0.0000 -0.0000 -1.0000
vn -1.0000 -0.0000 -0.0000
vn 1.0000 -0.0000 -0.0000
vt 0.000000 0.000000
vt 0.000000 0.000000
vt 0.000000 0.000000
vt 0.000000 0.000000
vt 0.000000 0.000000
vt 0.000000 0.000000
vt 0.000000 0.000000
vt 0.000000 0.000000
vt 0.536458 0.520833
vt 0.536458 0.229167
vt 0.609375 0.520833
vt 0.609375 0.229167
vt 0.536458 0.590278
vt 0.609375 0.590278
vt 0.536458 0.159722
vt 0.609375 0.159722
s 0
usemtl Wall
f 1/1/1 3/3/1 4/4/1 2/2/1
f 6/6/2 8/8/2 4/4/2 3/3/2
f 8/8/3 6/6/3 5/5/3 7/7/3
f 15/15/4 16/16/4 12/12/4 10/10/4
f 10/10/2 9/9/2 13/13/2 15/15/2
f 9/9/5 11/11/5 14/14/5 13/13/5
