# Blender 3.3.1
# www.blender.org
mtllib Block3.mtl
o Block3.001
v 0.869382 -6.376335 2.547062
v 0.869384 4.637306 2.547062
v -0.869382 4.637306 2.547062
v -0.869384 -6.376335 2.547062
v -0.869383 1.739028 -5.094123
v 0.869383 1.739028 -5.094123
vn -0.0000 0.9350 -0.3546
vn -1.0000 -0.0000 -0.0000
vn 1.0000 -0.0000 -0.0000
vn -0.0000 -0.6855 -0.7281
vn -0.0000 -0.0000 1.0000
vt 0.000000 0.240192
vt 0.848319 0.236300
vt 0.000000 0.480383
vt 0.000000 0.000000
vt 0.000000 0.000000
vt 0.772479 0.480383
vt 0.772479 0.240192
vt 0.886239 0.236300
vt 0.605835 0.417176
vt 0.886239 0.415766
vt 0.166643 0.417176
vt 0.848319 0.415766
s 0
usemtl Material.005
f 3/5/1 2/4/1 6/11/1 5/10/1
usemtl Wall.002
f 4/7/2 3/6/2 5/9/2
f 6/11/3 2/3/3 1/1/3
f 1/2/4 4/8/4 5/10/4 6/12/4
f 1/2/5 2/4/5 3/6/5 4/8/5
