# Blender 3.3.1
# www.blender.org
mtllib Frame.mtl
o Frame.001
v -348.463867 11.216679 -8.855217
v -348.463867 -21.824234 -8.855217
v -346.725098 11.216679 -8.855217
v -346.725098 -21.824234 -8.855217
v -348.463867 11.216679 8.855217
v -348.463867 -21.824234 8.855217
v -346.725098 11.216679 8.855217
v -346.725098 -21.824234 8.855217
v -348.463867 -21.824234 -2.951736
v -348.463867 -21.824234 2.951736
v -346.725098 11.216679 -2.951736
v -346.725098 11.216679 2.951736
v -346.725098 -21.824234 2.951736
v -346.725098 -21.824234 -2.951736
v -348.463867 11.216679 2.951736
v -348.463867 11.216679 -2.951736
v -348.463867 0.203046 -8.855217
v -348.463867 -10.810595 -8.855217
v -346.725098 -10.810595 8.855217
v -346.725098 0.203046 8.855217
v -346.725098 0.203046 -8.855217
v -346.725098 -10.810595 -8.855217
v -348.463867 0.203046 8.855217
v -348.463867 -10.810595 8.855217
v -346.725098 12.647179 2.951736
v -346.725098 12.647179 8.855217
v -348.463867 12.647179 -8.855217
v -346.725098 12.647179 -8.855217
v -348.463867 12.647179 8.855217
v -348.463867 12.647179 -2.951736
v -346.725098 12.647179 -2.951736
v -348.463867 12.647179 2.951736
v -348.463867 -21.824234 10.362950
v -346.725098 -21.824234 10.362950
v -346.725098 0.203046 10.362950
v -346.725098 11.216679 10.362950
v -348.463867 -10.810595 10.362950
v -348.463867 11.216679 10.362950
v -346.725098 -10.810595 10.362950
v -348.463867 0.203046 10.362950
v -346.725098 12.647179 10.362950
v -348.463867 12.647179 10.362950
v -348.463867 -10.810595 -10.441213
v -348.463867 -21.824234 -10.441213
v -346.725098 -10.810595 -10.441213
v -346.725098 -21.824234 -10.441213
v -348.463867 11.216679 -10.441213
v -346.725098 11.216679 -10.441213
v -348.463867 0.203046 -10.441213
v -346.725098 0.203046 -10.441213
v -348.463867 12.647179 -10.441213
v -346.725098 12.647179 -10.441213
v -348.463867 -23.324682 8.855217
v -346.725098 -23.324682 8.855217
v -348.463867 -23.324682 2.951736
v -346.725098 -23.324682 -2.951736
v -346.725098 -23.324682 -8.855217
v -348.463867 -23.324682 -8.855217
v -348.463867 -23.324682 -2.951736
v -346.725098 -23.324682 2.951736
v -348.463867 -23.324682 10.362950
v -346.725098 -23.324682 10.362950
v -346.725098 -23.324682 -10.441213
v -348.463867 -23.324682 -10.441213
vn -0.0000 -1.0000 -0.0000
vn -0.0000 -0.0000 -1.0000
vn -0.0000 1.0000 -0.0000
vn -0.0000 -0.0000 1.0000
vn 1.0000 -0.0000 -0.0000
vn -1.0000 -0.0000 -0.0000
vt 0.386239 0.720575
vt 0.000000 0.000000
vt 0.386239 0.000000
vt 0.386239 0.720575
vt 0.000000 0.000000
vt 0.386239 0.000000
vt 0.772479 0.720575
vt 0.000000 0.000000
vt 0.772479 0.000000
vt 0.000000 0.720575
vt 0.000000 0.000000
vt 0.000000 0.000000
vt 0.514986 0.000000
vt 0.000000 0.000000
vt 0.643732 0.000000
vt 0.257493 0.720575
vt 0.000000 0.000000
vt 0.128746 0.720575
vt 0.000000 0.000000
vt 0.000000 0.000000
vt 0.128746 0.000000
vt 0.000000 0.000000
vt 0.257493 0.000000
vt 0.643732 0.720575
vt 0.000000 0.000000
vt 0.514986 0.720575
vt 0.000000 0.000000
vt 0.386239 0.480383
vt 0.000000 0.000000
vt 0.000000 0.000000
vt 0.386239 0.240192
vt 0.000000 0.000000
vt 0.000000 0.240192
vt 0.000000 0.480383
vt 0.000000 0.000000
vt 0.386239 0.480383
vt 0.000000 0.000000
vt 0.000000 0.000000
vt 0.386239 0.240192
vt 0.772479 0.480383
vt 0.000000 0.000000
vt 0.000000 0.000000
vt 0.772479 0.240192
vt 0.128746 0.720575
vt 0.924160 0.643699
vt 0.924160 0.772429
vt 0.000000 0.720575
vt 0.962080 0.386239
vt 0.386239 0.720575
vt 0.924160 0.386239
vt 0.386239 0.720575
vt 0.772479 0.720575
vt 0.962080 0.772429
vt 0.962080 0.514969
vt 0.514986 0.720575
vt 0.924160 0.514969
vt 0.257493 0.720575
vt 0.962080 0.643699
vt 0.643732 0.720575
vt 0.810399 0.000000
vt 0.772479 0.000000
vt 0.848319 0.000000
vt 0.000000 0.000000
vt 0.848319 0.480373
vt 0.000000 0.480383
vt 0.848319 0.720559
vt 0.000000 0.720575
vt 0.810399 0.240186
vt 0.772479 0.240192
vt 0.810399 0.720559
vt 0.772479 0.720575
vt 0.848319 0.240186
vt 0.000000 0.240192
vt 0.810399 0.480373
vt 0.772479 0.480383
vt 0.848319 0.720559
vt 0.924160 0.772429
vt 0.000000 0.720575
vt 0.772479 0.720575
vt 0.810399 0.720559
vt 0.962080 0.772429
vt 0.924160 0.240165
vt 0.386239 0.240192
vt 0.386239 0.000000
vt 0.924160 0.000000
vt 0.386239 0.240192
vt 0.886239 0.240165
vt 0.886239 0.000000
vt 0.386239 0.000000
vt 0.924160 0.720494
vt 0.386239 0.720575
vt 0.886239 0.720494
vt 0.386239 0.720575
vt 0.924160 0.480329
vt 0.386239 0.480383
vt 0.886239 0.480329
vt 0.386239 0.480383
vt 0.962080 0.386239
vt 0.924160 0.720494
vt 0.386239 0.720575
vt 0.924160 0.386239
vt 0.886239 0.720494
vt 0.386239 0.720575
vt 0.962080 0.000000
vt 0.772479 0.000000
vt 0.924160 0.000000
vt 0.000000 0.000000
vt 0.962080 0.128746
vt 0.643732 0.000000
vt 0.924160 0.257493
vt 0.257493 0.000000
vt 0.924160 0.386239
vt 0.386239 0.000000
vt 0.962080 0.386239
vt 0.386239 0.000000
vt 0.962080 0.257493
vt 0.514986 0.000000
vt 0.128746 0.000000
vt 0.924160 0.128746
vt 0.810399 0.000000
vt 0.962080 0.000000
vt 0.772479 0.000000
vt 0.848319 0.000000
vt 0.924160 0.000000
vt 0.000000 0.000000
vt 0.924160 0.386239
vt 0.886239 0.000000
vt 0.386239 0.000000
vt 0.386239 0.000000
vt 0.962080 0.386239
vt 0.924160 0.000000
s 0
usemtl Material.011
f 16/27/1 11/17/1 12/19/1 15/25/1
f 19/32/2 24/42/2 23/41/2 20/35/2
f 24/42/2 19/32/2 8/11/2 6/8/2
f 13/20/3 10/14/3 6/8/3 8/11/3
f 9/12/1 14/22/1 13/20/1 10/14/1
f 9/12/3 14/22/3 4/5/3 2/2/3
f 22/38/4 18/30/4 2/2/4 4/5/4
f 21/37/4 17/29/4 18/30/4 22/38/4
usemtl Wall.008
f 12/18/5 11/16/5 31/57/5 25/44/5
f 14/23/5 13/21/5 60/118/5 56/111/5
f 34/62/4 33/60/4 61/120/4 62/123/4
f 22/39/5 4/6/5 46/89/5 45/86/5
f 10/15/6 9/13/6 59/117/6 55/109/6
f 13/21/5 8/11/5 54/107/5 60/118/5
f 7/10/5 12/18/5 25/44/5 26/47/5
f 16/26/6 15/24/6 32/59/6 30/55/6
f 27/48/3 28/50/3 52/101/3 51/98/3
f 21/36/5 22/39/5 45/86/5 50/97/5
f 29/52/6 5/7/6 38/71/6 42/79/6
f 8/11/5 19/33/5 39/73/5 34/63/5
f 32/58/3 29/53/3 26/46/3 25/45/3
f 27/48/3 30/54/3 31/56/3 28/50/3
f 30/54/3 32/58/3 25/45/3 31/56/3
f 20/34/5 7/10/5 36/67/5 35/65/5
f 15/24/6 5/7/6 29/52/6 32/59/6
f 18/31/6 17/28/6 49/95/6 43/83/6
f 11/16/5 3/4/5 28/51/5 31/57/5
f 1/1/6 16/26/6 30/55/6 27/49/6
f 35/64/4 36/66/4 38/70/4 40/74/4
f 34/62/4 39/72/4 37/68/4 33/60/4
f 39/72/4 35/64/4 40/74/4 37/68/4
f 38/70/4 36/66/4 41/76/4 42/80/4
f 5/7/6 23/40/6 40/75/6 38/71/6
f 26/46/3 29/53/3 42/81/3 41/77/3
f 19/33/5 20/34/5 35/65/5 39/73/5
f 23/40/6 24/43/6 37/69/6 40/75/6
f 7/10/5 26/47/5 41/78/5 36/67/5
f 24/43/6 6/9/6 33/61/6 37/69/6
f 49/94/2 47/90/2 48/92/2 50/96/2
f 44/85/2 43/82/2 45/87/2 46/88/2
f 43/82/2 49/94/2 50/96/2 45/87/2
f 48/92/2 47/90/2 51/99/2 52/102/2
f 2/3/6 44/84/6 64/129/6 58/115/6
f 1/1/6 27/49/6 51/100/6 47/91/6
f 17/28/6 1/1/6 47/91/6 49/95/6
f 3/4/5 21/36/5 50/97/5 48/93/5
f 28/51/5 3/4/5 48/93/5 52/103/5
f 2/3/6 18/31/6 43/83/6 44/84/6
f 53/104/1 54/106/1 62/124/1 61/121/1
f 59/116/1 58/114/1 57/112/1 56/110/1
f 53/104/1 55/108/1 60/119/1 54/106/1
f 55/108/1 59/116/1 56/110/1 60/119/1
f 57/112/1 58/114/1 64/130/1 63/126/1
f 33/61/6 6/9/6 53/105/6 61/122/6
f 44/85/2 46/88/2 63/127/2 64/131/2
f 6/9/6 10/15/6 55/109/6 53/105/6
f 8/11/5 34/63/5 62/125/5 54/107/5
f 46/89/5 4/6/5 57/113/5 63/128/5
f 4/6/5 14/23/5 56/111/5 57/113/5
f 9/13/6 2/3/6 58/115/6 59/117/6
f 20/35/2 23/41/2 5/7/2 7/10/2
f 12/19/1 7/10/1 5/7/1 15/25/1
f 17/29/4 21/37/4 3/4/4 1/1/4
f 16/27/1 1/1/1 3/4/1 11/17/1
