# Blender 3.3.1
# www.blender.org
mtllib frame.mtl
o frame
v -349.000000 -23.100000 18.000000
v -349.000000 23.100000 18.000000
v -349.000000 -23.100000 -18.000000
v -349.000000 23.100000 -18.000000
v -347.000000 -23.100000 18.000000
v -347.000000 23.100000 18.000000
v -347.000000 -23.100000 -18.000000
v -347.000000 23.100000 -18.000000
v -349.000000 6.737500 18.000000
v -349.000000 6.737500 -18.000000
v -347.000000 6.737500 -18.000000
v -347.000000 6.737500 18.000000
v -349.000000 20.212500 18.000000
v -349.000000 20.212500 -18.000000
v -347.000000 20.212500 -18.000000
v -347.000000 20.212500 18.000000
v -349.000000 -6.737500 -18.000000
v -347.000000 -6.737500 -18.000000
v -347.000000 -6.737500 18.000000
v -349.000000 -6.737500 18.000000
v -349.000000 -20.212500 -18.000000
v -347.000000 -20.212500 -18.000000
v -347.000000 -20.212500 18.000000
v -349.000000 -20.212500 18.000000
v -349.000000 -23.100000 -15.000000
v -349.000000 23.100000 -15.000000
v -347.000000 -23.100000 -15.000000
v -347.000000 23.100000 -15.000000
v -347.000000 6.737500 -15.000000
v -349.000000 6.737500 -15.000000
v -347.000000 20.212500 -15.000000
v -349.000000 20.212500 -15.000000
v -347.000000 -6.737500 -15.000000
v -349.000000 -6.737500 -15.000000
v -347.000000 -20.212500 -15.000000
v -349.000000 -20.212500 -15.000000
v -349.000000 -23.100000 -5.000000
v -347.000000 23.100000 -5.000000
v -347.000000 20.212500 -5.000000
v -347.000000 -20.212500 -5.000000
v -349.000000 23.100000 -5.000000
v -347.000000 -23.100000 -5.000000
v -349.000000 20.212500 -5.000000
v -349.000000 -20.212500 -5.000000
v -349.000000 -23.100000 5.000000
v -347.000000 23.100000 5.000000
v -347.000000 20.212500 5.000000
v -347.000000 -20.212500 5.000000
v -349.000000 23.100000 5.000000
v -347.000000 -23.100000 5.000000
v -349.000000 20.212500 5.000000
v -349.000000 -20.212500 5.000000
v -349.000000 -23.100000 15.000000
v -347.000000 23.100000 15.000000
v -347.000000 6.737500 15.000000
v -347.000000 20.212500 15.000000
v -347.000000 -6.737500 15.000000
v -347.000000 -20.212500 15.000000
v -349.000000 23.100000 15.000000
v -347.000000 -23.100000 15.000000
v -349.000000 6.737500 15.000000
v -349.000000 20.212500 15.000000
v -349.000000 -6.737500 15.000000
v -349.000000 -20.212500 15.000000
v -347.000000 6.737500 -15.000000
v -349.000000 6.737500 -15.000000
v -347.000000 20.212500 -15.000000
v -349.000000 20.212500 -15.000000
vn -1.0000 -0.0000 -0.0000
vn -0.0000 -0.0000 -1.0000
vn 1.0000 -0.0000 -0.0000
vn -0.0000 -0.0000 1.0000
vn -0.0000 -1.0000 -0.0000
vn -0.0000 1.0000 -0.0000
vt 0.125000 0.750000
vt 0.375000 1.000000
vt 0.375000 0.000000
vt 0.625000 1.000000
vt 0.875000 0.750000
vt 0.625000 0.000000
vt 0.375000 0.250000
vt 0.125000 0.500000
vt 0.625000 0.250000
vt 0.875000 0.500000
vt 0.375000 0.750000
vt 0.625000 0.750000
vt 0.375000 0.500000
vt 0.625000 0.500000
vt 0.536458 1.000000
vt 0.536458 0.000000
vt 0.536458 0.250000
vt 0.536458 0.500000
vt 0.536458 0.750000
vt 0.609375 1.000000
vt 0.609375 0.000000
vt 0.609375 0.250000
vt 0.609375 0.500000
vt 0.609375 0.750000
vt 0.463542 0.250000
vt 0.463542 0.500000
vt 0.463542 0.750000
vt 0.463542 1.000000
vt 0.463542 0.000000
vt 0.390625 0.250000
vt 0.390625 0.500000
vt 0.390625 0.750000
vt 0.390625 1.000000
vt 0.390625 0.000000
vt 0.375000 0.229167
vt 0.125000 0.520833
vt 0.625000 0.229167
vt 0.875000 0.520833
vt 0.375000 0.520833
vt 0.625000 0.520833
vt 0.536458 0.520833
vt 0.000000 0.000000
vt 0.536458 0.229167
vt 0.000000 0.000000
vt 0.609375 0.520833
vt 0.000000 0.000000
vt 0.609375 0.229167
vt 0.000000 0.000000
vt 0.463542 0.520833
vt 0.000000 0.000000
vt 0.463542 0.229167
vt 0.000000 0.000000
vt 0.390625 0.520833
vt 0.000000 0.000000
vt 0.390625 0.229167
vt 0.000000 0.000000
vt 0.375000 0.159722
vt 0.125000 0.590278
vt 0.625000 0.590278
vt 0.609375 0.590278
vt 0.000000 0.000000
vt 0.390625 0.590278
vt 0.000000 0.000000
vt 0.625000 0.159722
vt 0.875000 0.590278
vt 0.375000 0.590278
vt 0.609375 0.159722
vt 0.000000 0.000000
vt 0.390625 0.159722
vt 0.000000 0.000000
vt 0.375000 0.090278
vt 0.125000 0.659722
vt 0.625000 0.659722
vt 0.609375 0.659722
vt 0.000000 0.000000
vt 0.390625 0.659722
vt 0.000000 0.000000
vt 0.625000 0.090278
vt 0.875000 0.659722
vt 0.375000 0.659722
vt 0.609375 0.090278
vt 0.000000 0.000000
vt 0.390625 0.090278
vt 0.000000 0.000000
vt 0.125000 0.729167
vt 0.375000 0.020833
vt 0.625000 0.729167
vt 0.536458 0.729167
vt 0.000000 0.000000
vt 0.000000 0.000000
vt 0.609375 0.729167
vt 0.463542 0.729167
vt 0.000000 0.000000
vt 0.390625 0.729167
vt 0.000000 0.000000
vt 0.625000 0.020833
vt 0.875000 0.729167
vt 0.375000 0.729167
vt 0.536458 0.020833
vt 0.000000 0.000000
vt 0.000000 0.000000
vt 0.609375 0.020833
vt 0.463542 0.020833
vt 0.000000 0.000000
vt 0.390625 0.020833
vt 0.000000 0.000000
vt 0.536458 0.520833
vt 0.536458 0.229167
vt 0.609375 0.520833
vt 0.609375 0.229167
s 0
usemtl æè´¨.009
f 32/47/1 26/37/1 4/9/1 14/22/1
f 14/22/2 4/9/2 8/14/2 15/23/2
f 56/91/3 54/87/3 6/12/3 16/24/3
f 16/24/4 6/12/4 2/4/4 13/20/4
f 53/85/5 60/98/5 5/11/5 1/1/5
f 54/87/6 59/97/6 2/5/6 6/12/6
f 57/92/3 55/88/3 12/19/3 19/27/3
f 17/25/2 10/17/2 11/18/2 18/26/2
f 34/51/1 30/43/1 10/17/1 17/25/1
f 19/27/4 12/19/4 9/15/4 20/28/4
f 61/99/5 55/88/5 12/19/5 9/16/5
f 55/88/3 56/91/3 16/24/3 12/19/3
f 10/17/2 14/22/2 15/23/2 11/18/2
f 30/43/1 32/47/1 14/22/1 10/17/1
f 12/19/4 16/24/4 13/20/4 9/15/4
f 62/102/5 56/91/5 16/24/5 13/21/5
f 23/32/4 19/27/4 20/28/4 24/33/4
f 58/94/3 57/92/3 19/27/3 23/32/3
f 21/30/2 17/25/2 18/26/2 22/31/2
f 36/55/1 34/51/1 17/25/1 21/30/1
f 63/103/5 57/92/5 19/27/5 20/29/5
f 5/11/4 23/32/4 24/33/4 1/2/4
f 60/98/3 58/94/3 23/32/3 5/11/3
f 3/7/2 21/30/2 22/31/2 7/13/2
f 25/35/1 36/55/1 21/30/1 3/7/1
f 64/105/5 58/94/5 23/32/5 24/34/5
f 21/30/5 22/31/5 35/53/5 36/55/5
f 22/31/3 18/26/3 33/49/3 35/53/3
f 17/25/5 18/26/5 33/49/5 34/51/5
f 14/22/5 15/23/5 31/45/5 32/47/5
f 10/17/5 11/18/5 29/41/5 30/43/5
f 18/26/3 11/18/3 29/41/3 33/49/3
f 11/18/3 15/23/3 31/45/3 29/41/3
f 15/23/3 8/14/3 28/40/3 31/45/3
f 7/13/3 22/31/3 35/53/3 27/39/3
f 43/67/1 41/64/1 26/37/1 32/47/1
f 8/14/6 4/10/6 26/38/6 28/40/6
f 3/8/5 7/13/5 27/39/5 25/36/5
f 37/57/1 44/69/1 36/55/1 25/35/1
f 31/45/2 32/47/2 26/38/2 28/40/2
f 27/39/2 25/35/2 36/55/2 35/53/2
f 51/81/1 49/78/1 41/64/1 43/67/1
f 27/39/3 35/53/3 40/62/3 42/66/3
f 35/54/4 33/50/4 34/52/4 36/56/4
f 29/42/2 33/50/2 34/52/2 30/44/2
f 31/45/3 28/40/3 38/59/3 39/60/3
f 28/40/6 26/38/6 41/65/6 38/59/6
f 25/36/5 27/39/5 42/66/5 37/58/5
f 45/71/1 52/83/1 44/69/1 37/57/1
f 44/70/6 40/63/6 35/54/6 36/56/6
f 39/60/2 43/67/2 41/65/2 38/59/2
f 42/66/2 37/57/2 44/69/2 40/62/2
f 62/102/1 59/96/1 49/78/1 51/81/1
f 42/66/3 40/62/3 48/76/3 50/80/3
f 39/60/3 38/59/3 46/73/3 47/74/3
f 38/59/6 41/65/6 49/79/6 46/73/6
f 37/58/5 42/66/5 50/80/5 45/72/5
f 53/86/1 64/105/1 52/83/1 45/71/1
f 52/84/6 48/77/6 40/63/6 44/70/6
f 47/74/2 51/81/2 49/79/2 46/73/2
f 50/80/2 45/71/2 52/83/2 48/76/2
f 24/34/1 20/29/1 63/103/1 64/105/1
f 20/29/1 9/16/1 61/99/1 63/103/1
f 9/16/1 13/21/1 62/102/1 61/99/1
f 13/21/1 2/6/1 59/96/1 62/102/1
f 50/80/3 48/76/3 58/94/3 60/98/3
f 62/101/2 56/90/2 55/89/2 61/100/2
f 47/74/3 46/73/3 54/87/3 56/91/3
f 46/73/6 49/79/6 59/97/6 54/87/6
f 45/72/5 50/80/5 60/98/5 53/85/5
f 1/3/1 24/34/1 64/105/1 53/86/1
f 63/104/2 57/93/2 58/95/2 64/106/2
f 61/100/2 55/89/2 57/93/2 63/104/2
f 56/90/5 62/101/5 51/82/5 47/75/5
f 56/91/2 62/102/2 59/97/2 54/87/2
f 60/98/2 53/86/2 64/105/2 58/94/2
f 65/107/2 66/108/2 68/110/2 67/109/2
f 39/61/5 43/68/5 32/48/5 31/46/5
f 47/75/5 51/82/5 43/68/5 39/61/5
f 64/106/6 58/95/6 48/77/6 52/84/6
