# Blender 3.3.1
# www.blender.org
mtllib Block6.mtl
o Block6.001
v -0.869383 -7.535661 3.386167
v 0.869383 -7.535661 3.386167
v -0.869384 -7.535661 -2.517314
v 0.869382 -7.535661 -2.517314
v 0.869383 3.477980 3.386167
v -0.869383 3.477980 3.386167
v -0.869383 11.593343 -4.255018
v 0.869383 11.593343 -4.255018
vn -0.0000 -0.6855 -0.7281
vn -1.0000 -0.0000 -0.0000
vn 1.0000 -0.0000 -0.0000
vn -0.0000 0.0905 0.9959
vn -0.0000 -1.0000 -0.0000
vn -0.0000 -0.0000 1.0000
vt 0.772479 0.000000
vt 0.000000 0.000000
vt 0.643732 0.000000
vt 0.772479 0.000000
vt 0.128746 0.000000
vt 0.810399 0.000000
vt 0.000000 0.240192
vt 0.000000 0.000000
vt 0.772479 0.240192
vt 0.000000 0.000000
vt 0.000000 0.000000
vt 0.605835 0.417176
vt 0.772479 0.416913
vt 0.000000 0.000000
vt 0.166643 0.417176
vt 0.810399 0.416913
s 0
usemtl Material.008
f 7/11/1 8/14/1 5/8/1 6/10/1
usemtl Wall.005
f 1/1/2 6/9/2 7/12/2 3/3/2
f 4/5/3 8/15/3 5/7/3 2/2/3
f 8/16/4 7/13/4 3/4/4 4/6/4
f 3/4/5 4/6/5 2/2/5 1/1/5
f 6/10/6 1/1/6 2/2/6 5/8/6
