# Blender 3.3.1
# www.blender.org
mtllib Block8.mtl
o Block8
v 2.402832 -7.526208 3.299372
v 0.813708 -7.526208 3.999666
v 0.025183 -7.526208 -2.096042
v -1.563940 -7.526208 -1.395748
v 2.402830 3.473617 3.299373
v 0.813706 3.473616 3.999667
v -1.652597 11.578799 -5.903294
v -3.241721 11.578799 -5.202999
vn 0.2531 0.7786 0.5742
vn -0.9151 -0.0000 0.4033
vn 0.9151 -0.0000 -0.4033
vn 0.3940 0.2128 0.8941
vn 0.4033 -0.0000 0.9151
vn -0.0000 -1.0000 -0.0000
vt 0.386239 0.000000
vt 0.386239 0.000000
vt 0.514986 0.000000
vt 0.886239 0.000000
vt 0.257493 0.000000
vt 0.848319 0.000000
vt 0.386239 0.240192
vt 0.000000 0.000000
vt 0.000000 0.000000
vt 0.386239 0.240192
vt 0.000000 0.000000
vt 0.605835 0.417176
vt 0.886239 0.415766
vt 0.000000 0.000000
vt 0.166643 0.417176
vt 0.848319 0.415766
s 0
usemtl Material.010
f 7/11/1 8/14/1 6/9/1 5/8/1
usemtl Wall.007
f 2/2/2 6/10/2 8/15/2 4/5/2
f 3/3/3 7/12/3 5/7/3 1/1/3
f 7/13/4 8/16/4 4/6/4 3/4/4
f 1/1/5 5/8/5 6/10/5 2/2/5
f 4/6/6 3/4/6 1/1/6 2/2/6
